<svg width="200" height="200" viewBox="0 0 200 200" xmlns="http://www.w3.org/2000/svg">
  <!-- 背景 -->
  <circle cx="100" cy="100" r="100" fill="#EC4899"/>
  
  <!-- 顔 -->
  <circle cx="100" cy="85" r="35" fill="#FEF3C7"/>
  
  <!-- 髪 -->
  <path d="M 65 65 Q 100 40 135 65 Q 140 50 120 45 Q 100 40 80 45 Q 60 50 65 65" fill="#92400E"/>
  
  <!-- 前髪 -->
  <path d="M 80 65 Q 90 55 100 60 Q 110 55 120 65" fill="#92400E"/>
  
  <!-- 目 -->
  <circle cx="90" cy="80" r="3" fill="#1F2937"/>
  <circle cx="110" cy="80" r="3" fill="#1F2937"/>
  
  <!-- まつ毛 -->
  <path d="M 87 77 L 93 77" stroke="#1F2937" stroke-width="1"/>
  <path d="M 107 77 L 113 77" stroke="#1F2937" stroke-width="1"/>
  
  <!-- 口 -->
  <path d="M 93 95 Q 100 102 107 95" stroke="#DC2626" stroke-width="2" fill="none"/>
  
  <!-- 体 -->
  <rect x="75" y="115" width="50" height="60" rx="10" fill="#F59E0B"/>
  
  <!-- シャツ -->
  <rect x="80" y="120" width="40" height="50" rx="5" fill="#FFFFFF"/>
  
  <!-- 装飾 -->
  <circle cx="90" cy="130" r="2" fill="#EC4899"/>
  <circle cx="110" cy="140" r="2" fill="#EC4899"/>
</svg>