<svg width="200" height="200" viewBox="0 0 200 200" xmlns="http://www.w3.org/2000/svg">
  <!-- 背景 -->
  <circle cx="100" cy="100" r="100" fill="#059669"/>
  
  <!-- 顔 -->
  <circle cx="100" cy="85" r="35" fill="#FEF3C7"/>
  
  <!-- 髪（短髪で薄め） -->
  <path d="M 70 70 Q 100 50 130 70 Q 125 55 100 52 Q 75 55 70 70" fill="#6B7280"/>
  
  <!-- 眉毛 -->
  <path d="M 85 75 L 95 75" stroke="#4B5563" stroke-width="2"/>
  <path d="M 105 75 L 115 75" stroke="#4B5563" stroke-width="2"/>
  
  <!-- 目 -->
  <circle cx="90" cy="82" r="2.5" fill="#1F2937"/>
  <circle cx="110" cy="82" r="2.5" fill="#1F2937"/>
  
  <!-- 鼻 -->
  <circle cx="100" cy="90" r="1" fill="#E5E7EB"/>
  
  <!-- 口 -->
  <path d="M 95 98 Q 100 103 105 98" stroke="#374151" stroke-width="1.5" fill="none"/>
  
  <!-- 体 -->
  <rect x="75" y="115" width="50" height="60" rx="10" fill="#1F2937"/>
  
  <!-- スーツ -->
  <rect x="78" y="118" width="44" height="57" rx="8" fill="#374151"/>
  
  <!-- シャツ -->
  <rect x="85" y="125" width="30" height="45" fill="#FFFFFF"/>
  
  <!-- ネクタイ -->
  <rect x="96" y="125" width="8" height="35" fill="#DC2626"/>
  
  <!-- ラペル -->
  <path d="M 85 125 L 95 135 L 85 145" fill="#1F2937"/>
  <path d="M 115 125 L 105 135 L 115 145" fill="#1F2937"/>
</svg>